<svg width="400.905029" height="52.500000" viewBox="0 0 400.905 52.5" fill="none" xmlns="http://www.w3.org/2000/svg" xmlns:xlink="http://www.w3.org/1999/xlink">
	<desc>
			Created with Pixso.
	</desc>
	<path id="矢量 2" d="M5.32043 40L5.32043 15L11.0677 6.5L173.79 6.5L185.464 18.5L384.467 18.5L395.782 32L395.782 45L5.32043 45L5.32043 40Z" fill-rule="evenodd" fill="url(#paint_linear_6_6_0)"/>
	<path id="攻击来源" d="M42.6384 23.1211L42.6384 24.7173L41.6164 24.7173C41.1823 26.8433 40.5226 28.5796 39.528 29.9673C40.4099 30.9585 41.4899 31.7446 42.8605 32.2334C42.4811 32.5684 41.9787 33.269 41.7121 33.7305C40.3415 33.1597 39.2614 32.3462 38.3796 31.3242C37.3029 32.3462 35.946 33.1426 34.2507 33.7305C34.1105 33.3408 33.6628 32.5684 33.3688 32.2061C35.0778 31.6865 36.3937 30.9585 37.402 29.9365C36.8278 28.9727 36.3801 27.8789 36.0007 26.6758C35.7785 27.0415 35.5392 27.3901 35.2863 27.7114C34.9787 27.4312 34.2643 26.9287 33.8576 26.7168C35.1325 25.3188 36.0861 22.981 36.6159 20.6157L38.2531 20.9507C38.072 21.6787 37.8635 22.4204 37.6242 23.1211L42.6384 23.1211ZM56.4264 27.5166L51.108 27.5166L51.108 31.4644L53.5416 31.4644L53.5416 28.313L55.278 28.313L55.278 33.7305L53.5416 33.7305L53.5416 33.0742L45.0309 33.0742L45.0309 28.3403L46.8219 28.3403L46.8219 31.4644L49.3273 31.4644L49.3273 27.5166L43.8824 27.5166L43.8824 25.8486L49.3273 25.8486L49.3273 24.2251L44.8771 24.2251L44.8771 22.5742L49.3273 22.5742L49.3273 20.6431L51.108 20.6431L51.108 22.5742L55.5035 22.5742L55.5035 24.2251L51.108 24.2251L51.108 25.8486L56.4264 25.8486L56.4264 27.5166ZM70.399 26.7168L70.399 28.313L66.0172 28.313C67.2203 29.769 69.0113 31.1123 70.7613 31.8403C70.3853 32.1787 69.8521 32.835 69.5992 33.2417C67.921 32.4009 66.2838 31.0029 65.0225 29.4067L65.0225 33.7031L63.2589 33.7031L63.2589 29.4341C61.9839 31.0029 60.3467 32.3735 58.6651 33.2144C58.4019 32.8076 57.8824 32.1514 57.4893 31.813C59.253 31.085 61.0611 29.7554 62.2779 28.313L57.8824 28.313L57.8824 26.7168L60.5279 26.7168C60.3741 26.0469 59.9263 25.0659 59.4786 24.3105L60.921 23.7637L58.5421 23.7637L58.5421 22.1675L63.2589 22.1675L63.2589 20.6431L65.0225 20.6431L65.0225 22.1675L69.8658 22.1675L69.8658 23.7637L67.5416 23.7637L69.1514 24.2388C68.6627 25.1514 68.1295 26.0879 67.6817 26.7168L70.399 26.7168ZM73.1982 20.7388C73.8989 21.1318 74.9893 21.7334 75.5225 22.1128L74.5142 23.4424C74.0117 23.0356 72.959 22.3794 72.248 21.9453L73.1982 20.7388ZM84.1323 24.0576L84.1323 29.1128L81.6953 29.1128L81.6953 32.1377C81.6953 32.8486 81.5859 33.2417 81.0938 33.4673C80.6187 33.6895 79.959 33.7168 79.1079 33.7031C79.0361 33.269 78.855 32.6812 78.6738 32.2744C79.1626 32.2915 79.7231 32.2915 79.8906 32.2915C80.0444 32.2915 80.0991 32.2471 80.0991 32.0933L80.0991 29.1128L77.8877 29.1128L77.8877 24.0576L79.7642 24.0576C79.9043 23.6509 80.0308 23.2305 80.0991 22.8682L77.3989 22.8682L77.3989 25.2334C77.3989 27.7114 77.146 31.4097 75.4814 33.7305C75.1875 33.4673 74.4868 33.0195 74.0801 32.835C75.6489 30.6816 75.7891 27.5029 75.7891 25.2334L75.7891 21.3711L84.5391 21.3711L84.5391 22.8682L80.4375 22.8682L82.0029 23.1484C81.8218 23.4561 81.6406 23.7637 81.4595 24.0576L84.1323 24.0576ZM33.174 28.9146L35.2043 28.4531L35.3718 29.9365C33.4816 30.4561 31.4377 31.0166 29.8962 31.437L29.5031 29.7144C30.0637 29.6016 30.7643 29.4478 31.5197 29.2803L31.5197 23.8901L29.7424 23.8901L29.7424 22.2939L35.0505 22.2939L35.0505 23.8901L33.174 23.8901L33.174 28.9146ZM63.2589 26.7168L63.2589 23.7637L60.9756 23.7637C61.4678 24.519 61.9839 25.5137 62.1651 26.2007L60.8355 26.7168L63.2589 26.7168ZM66.1983 26.3135C66.605 25.6265 67.1075 24.5771 67.3878 23.7637L65.0225 23.7637L65.0225 26.7168L67.3741 26.7168L66.1983 26.3135ZM72.5112 24.5054C73.2256 24.8574 74.292 25.4316 74.8491 25.7939L73.8442 27.1372C73.3521 26.7476 72.3027 26.1289 71.5747 25.6948L72.5112 24.5054ZM38.506 28.4976C39.1384 27.4585 39.5724 26.2144 39.8664 24.7173L37.1218 24.7173C37.4294 26.1152 37.8908 27.3901 38.506 28.4976ZM82.5942 25.2471L79.3574 25.2471L79.3574 26.0195L82.5942 26.0195L82.5942 25.2471ZM82.5942 27.1372L79.3574 27.1372L79.3574 27.9233L82.5942 27.9233L82.5942 27.1372ZM71.7422 32.6401C72.3164 31.5464 73.1162 29.769 73.7041 28.1455L75.0747 29.0547C74.5415 30.5552 73.8853 32.1514 73.27 33.5356L71.7422 32.6401ZM83.3496 32.8486C83.0967 32.1206 82.5361 30.9448 82.0884 30.063L83.5308 29.5195C83.9785 30.3569 84.5938 31.4917 84.8877 32.1787L83.3496 32.8486ZM76.6846 32.165C77.2314 31.5054 77.7783 30.5415 78.127 29.6597L79.5967 30.0903C79.1626 31.085 78.5029 32.2471 77.9868 32.9751C77.6792 32.7256 77.0503 32.3462 76.6846 32.165Z" fill="#49E6F1FF"/>
	<g filter="url(#filter_6_12_dd)">
		<path id="矢量 5" d="M367.847 36.5L381.141 36.5L370.696 28.5L355.977 28.5L367.847 36.5Z" fill-rule="evenodd" fill="url(#paint_linear_6_12_0)"/>
	</g>
	<g filter="url(#filter_6_13_dd)">
		<path id="矢量 6" d="M341.929 36.5L355.223 36.5L344.777 28.5L330.059 28.5L341.929 36.5Z" fill-rule="evenodd" fill="url(#paint_linear_6_13_0)"/>
	</g>
	<g filter="url(#filter_6_14_dd)">
		<path id="矢量 7" d="M314.01 36.5L327.304 36.5L316.859 28.5L302.141 28.5L314.01 36.5Z" fill-rule="evenodd" fill="url(#paint_linear_6_14_0)"/>
	</g>
	<g filter="url(#filter_6_16_dd)"/>
	<path id="矢量 8" d="M20.1407 20.5L20.1407 33.5" stroke="#8AF7FF" stroke-width="2.000000"/>
	<path id="矢量 8" d="M20.1407 20.5L20.1407 33.5" stroke="#8AF7FF" stroke-width="2.000000"/>
	<g filter="url(#filter_6_44_dd)">
		<path id="矢量 53" d="" fill-rule="nonzero" fill="url(#paint_linear_6_44_0)"/>
	</g>
	<path id="矢量 53" d="M5.32043 44.5L5.32043 13.8301L11.0731 5.5L173.945 5.5L185.45 17.6165L384.636 17.6165L396.141 31.2476" stroke="url(#paint_linear_6_44_1)" stroke-width="2.000000"/>
	<g filter="url(#filter_6_45_dd)">
		<path id="矢量 4" d="" fill-rule="nonzero" fill="url(#paint_linear_6_45_0)"/>
	</g>
	<path id="矢量 4" d="M5.5 44.5L5.5 14.4536C5.5 14.0475 5.62354 13.6512 5.85425 13.3171L10.6564 6.36349C11.0298 5.82278 11.6449 5.5 12.302 5.5L173.266 5.5C173.814 5.5 174.338 5.72516 174.716 6.12283L185.047 17.0023C185.419 17.3949 185.935 17.6251 186.477 17.6251L381.898 19.6074C382.48 19.6074 383.031 19.8725 383.406 20.3173L394.32 33.2476" stroke="url(#paint_linear_6_45_1)" stroke-width="3.000000"/>
	<defs>
		<filter id="filter_6_12_dd" x="353.977417" y="26.500000" width="29.163391" height="12.000000" filterUnits="userSpaceOnUse" color-interpolation-filters="sRGB">
			<feFlood flood-opacity="0" result="BackgroundImageFix"/>
			<feBlend mode="normal" in="SourceGraphic" in2="BackgroundImageFix" result="shape"/>
			<feGaussianBlur stdDeviation="0.666667" result="effect_layerBlur_1"/>
		</filter>
		<filter id="filter_6_13_dd" x="328.059204" y="26.500000" width="29.163391" height="12.000000" filterUnits="userSpaceOnUse" color-interpolation-filters="sRGB">
			<feFlood flood-opacity="0" result="BackgroundImageFix"/>
			<feBlend mode="normal" in="SourceGraphic" in2="BackgroundImageFix" result="shape"/>
			<feGaussianBlur stdDeviation="0.666667" result="effect_layerBlur_1"/>
		</filter>
		<filter id="filter_6_14_dd" x="300.140991" y="26.500000" width="29.163391" height="12.000000" filterUnits="userSpaceOnUse" color-interpolation-filters="sRGB">
			<feFlood flood-opacity="0" result="BackgroundImageFix"/>
			<feBlend mode="normal" in="SourceGraphic" in2="BackgroundImageFix" result="shape"/>
			<feGaussianBlur stdDeviation="0.666667" result="effect_layerBlur_1"/>
		</filter>
		<filter id="filter_6_16_dd" x="15.140747" y="16.500000" width="10.000000" height="21.000000" filterUnits="userSpaceOnUse" color-interpolation-filters="sRGB">
			<feFlood flood-opacity="0" result="BackgroundImageFix"/>
			<feBlend mode="normal" in="SourceGraphic" in2="BackgroundImageFix" result="shape"/>
			<feGaussianBlur stdDeviation="1.33333" result="effect_layerBlur_1"/>
		</filter>
		<filter id="filter_6_44_dd" x="0.320435" y="4.500000" width="400.584595" height="48.000000" filterUnits="userSpaceOnUse" color-interpolation-filters="sRGB">
			<feFlood flood-opacity="0" result="BackgroundImageFix"/>
			<feColorMatrix in="SourceAlpha" type="matrix" values="0 0 0 0 0 0 0 0 0 0 0 0 0 0 0 0 0 0 127 0"/>
			<feOffset dx="0" dy="4"/>
			<feGaussianBlur stdDeviation="1.33333"/>
			<feColorMatrix type="matrix" values="0 0 0 0 0 0 0 0 0 0 0 0 0 0 0 0 0 0 0.25 0"/>
			<feBlend mode="normal" in2="BackgroundImageFix" result="effect_dropShadow_1"/>
			<feBlend mode="normal" in="SourceGraphic" in2="effect_dropShadow_1" result="shape"/>
		</filter>
		<filter id="filter_6_45_dd" x="0.000000" y="0.000000" width="399.466675" height="48.500000" filterUnits="userSpaceOnUse" color-interpolation-filters="sRGB">
			<feFlood flood-opacity="0" result="BackgroundImageFix"/>
			<feBlend mode="normal" in="SourceGraphic" in2="BackgroundImageFix" result="shape"/>
			<feGaussianBlur stdDeviation="1.33333" result="effect_layerBlur_1"/>
		</filter>
		<linearGradient id="paint_linear_6_6_0" x1="5.320186" y1="33.786499" x2="395.781586" y2="32.500366" gradientUnits="userSpaceOnUse">
			<stop stop-color="#0C4455"/>
			<stop offset="1.000000" stop-color="#FFFFFF" stop-opacity="0.000000"/>
		</linearGradient>
		<linearGradient id="paint_linear_6_12_0" x1="368.559113" y1="28.500000" x2="368.559113" y2="36.500000" gradientUnits="userSpaceOnUse">
			<stop stop-color="#65CBD3"/>
			<stop offset="1.000000" stop-color="#65CBD3" stop-opacity="0.000000"/>
		</linearGradient>
		<linearGradient id="paint_linear_6_13_0" x1="342.640900" y1="28.500000" x2="342.640900" y2="36.500000" gradientUnits="userSpaceOnUse">
			<stop stop-color="#65CBD3"/>
			<stop offset="1.000000" stop-color="#65CBD3" stop-opacity="0.000000"/>
		</linearGradient>
		<linearGradient id="paint_linear_6_14_0" x1="314.722687" y1="28.500000" x2="314.722687" y2="36.500000" gradientUnits="userSpaceOnUse">
			<stop stop-color="#65CBD3"/>
			<stop offset="1.000000" stop-color="#65CBD3" stop-opacity="0.000000"/>
		</linearGradient>
		<linearGradient id="paint_linear_6_44_0" x1="5.320235" y1="33.140869" x2="447.195618" y2="34.655518" gradientUnits="userSpaceOnUse">
			<stop stop-color="#0C4455"/>
			<stop offset="1.000000" stop-color="#FFFFFF" stop-opacity="0.000000"/>
		</linearGradient>
		<linearGradient id="paint_linear_6_44_1" x1="5.320408" y1="25.000244" x2="396.140930" y2="20.999878" gradientUnits="userSpaceOnUse">
			<stop stop-color="#49E6F1"/>
			<stop offset="1.000000" stop-color="#49E6F1" stop-opacity="0.000000"/>
		</linearGradient>
		<linearGradient id="paint_linear_6_45_0" x1="5.499793" y1="33.140869" x2="445.113953" y2="34.655273" gradientUnits="userSpaceOnUse">
			<stop stop-color="#0C4455"/>
			<stop offset="1.000000" stop-color="#FFFFFF" stop-opacity="0.000000"/>
		</linearGradient>
		<linearGradient id="paint_linear_6_45_1" x1="2.336594" y1="21.000122" x2="407.751282" y2="19.000122" gradientUnits="userSpaceOnUse">
			<stop stop-color="#49E6F1"/>
			<stop offset="1.000000" stop-color="#49E6F1" stop-opacity="0.000000"/>
		</linearGradient>
	</defs>
</svg>
