<svg width="972.557983" height="60.500000" viewBox="0 0 972.558 60.5" fill="none" xmlns="http://www.w3.org/2000/svg" xmlns:xlink="http://www.w3.org/1999/xlink">
	<desc>
			Created with Pixso.
	</desc>
	<path id="矢量 43" d="M5.67969 48L5.67969 15L11.427 6.5L174.149 6.5L185.823 26.5L956.117 26.4473L967.432 39.9473L967.432 52.9473L5.67969 53L5.67969 48Z" fill-rule="evenodd" fill="url(#paint_linear_6_90_0)"/>
	<g filter="url(#filter_6_92_dd)">
		<path id="矢量 41" d="" fill-rule="nonzero" fill="url(#paint_linear_6_92_0)"/>
	</g>
	<path id="矢量 41" d="M5.5 52.5L5.5 13.8301L11.2527 5.5L174.125 5.5L185.63 25.6165L956.5 27L967.82 39.3643" stroke="url(#paint_linear_6_92_1)" stroke-width="2.000000"/>
	<g filter="url(#filter_6_93_dd)">
		<path id="矢量 42" d="" fill-rule="nonzero" fill="url(#paint_linear_6_93_0)"/>
	</g>
	<path id="矢量 42" d="M5.5 51.5L5.5 14.4536C5.5 14.0475 5.62357 13.6512 5.85431 13.317L10.6564 6.36349C11.0298 5.82278 11.645 5.5 12.3021 5.5L172.949 5.5C173.675 5.5 174.343 5.89297 174.696 6.52686L185.248 25.4716C185.601 26.1063 186.271 26.4985 186.998 26.4985L954.472 25.5011C955.014 25.5011 955.533 25.7198 955.911 26.1091L966.82 37.3643" stroke="url(#paint_linear_6_93_1)" stroke-width="3.000000"/>
	<path id="防御动态" d="M84.8401 25.4204L84.8401 26.9585L80.39 26.9585C81.3572 28.5273 82.8817 29.6348 85.1341 30.1235C84.7581 30.4756 84.2693 31.1865 84.0301 31.6514C81.4119 30.9097 79.7747 29.4229 78.7083 27.1841C77.9666 29.187 76.4422 30.8516 72.9695 31.8188C72.8021 31.4258 72.3953 30.7832 72.033 30.4175C74.9861 29.6758 76.3157 28.4453 76.9891 26.9585L72.1868 26.9585L72.1868 25.4204L77.4368 25.4204C77.5633 24.7915 77.6317 24.1592 77.6863 23.4893L79.409 23.4893C79.3543 24.1455 79.2825 24.7915 79.1732 25.4204L84.8401 25.4204ZM42.8984 25.8818L42.8984 27.4233L38.3765 27.4233C38.3491 27.9976 38.3354 28.541 38.291 29.0879L42.1431 29.0879C42.1431 29.0879 42.1294 29.5767 42.1294 29.7886C41.9893 33.8628 41.8491 35.4727 41.4287 36.0024C41.1074 36.4229 40.7827 36.563 40.3213 36.6348C39.9146 36.7031 39.231 36.7031 38.5166 36.6758C38.4893 36.187 38.291 35.5 38.0107 35.0249C38.6431 35.0933 39.2036 35.1069 39.4805 35.1069C39.7061 35.1069 39.8462 35.0522 39.959 34.8984C40.2085 34.6182 40.3486 33.4697 40.4341 30.5986L38.1509 30.5986C37.8022 33.2305 36.9341 35.3188 34.4834 36.6758C34.2749 36.269 33.7964 35.6948 33.4204 35.3872C36.4316 33.8047 36.6401 31.0464 36.7256 27.4233L34.9312 27.4233L34.9312 25.8818L38.3354 25.8818C38.2227 25.3486 37.9834 24.5522 37.7749 23.937L39.2993 23.5713C39.5522 24.1865 39.8462 25.041 39.959 25.5469L38.8105 25.8818L42.8984 25.8818ZM43.7939 26.3022C44.6757 25.6289 45.643 24.5112 46.1181 23.6431L47.6015 24.2036C46.8461 25.4204 45.6977 26.7363 44.6347 27.5771C44.4536 27.2251 44.0605 26.6099 43.7939 26.3022ZM51.2416 32.3213L51.2416 34.085L52.7387 33.8901L52.7831 35.2744C50.9477 35.5684 49.0029 35.835 47.5331 36.0469L47.2084 34.5464L47.8544 34.478L47.8544 30.4448L49.1293 30.4448L49.1293 34.3379L49.7993 34.2524L49.7993 29.6758L47.6596 29.6758L47.6596 28.1787L49.7993 28.1787L49.7993 26.5244L49.0165 26.5244C48.791 26.9312 48.5688 27.3105 48.3432 27.6318C48.0766 27.4097 47.4887 26.9585 47.1674 26.7773C47.7827 25.9946 48.2748 24.8052 48.5244 23.6431L49.9531 23.9644C49.8574 24.3267 49.7446 24.6924 49.6181 25.0547L52.6122 25.0547L52.6122 26.5244L51.2416 26.5244L51.2416 28.1787L52.6703 28.1787L52.6703 29.6758L51.2416 29.6758L51.2416 30.9233L52.6122 30.9233L52.6122 32.3213L51.2416 32.3213ZM67.7914 23.8926C67.7914 24.8462 67.7743 25.769 67.7606 26.6646L70.7992 26.6646C70.7992 26.6646 70.7855 27.2114 70.7855 27.4233C70.6454 33.063 70.4916 35.1069 70.0302 35.7529C69.6952 36.2417 69.3705 36.3818 68.868 36.481C68.434 36.5493 67.7196 36.5493 66.9916 36.522C66.9642 36.0469 66.7831 35.3599 66.5028 34.8984C67.1591 34.9531 67.7606 34.9531 68.0546 34.9531C68.2938 34.9531 68.434 34.9121 68.5741 34.7173C68.8817 34.3242 69.0219 32.6426 69.1483 28.2607L67.7059 28.2607C67.5111 31.7744 66.9232 34.7446 64.9476 36.7031C64.681 36.2827 64.1205 35.6948 63.7172 35.4316C64.1205 35.0249 64.4725 34.5635 64.7665 34.085L63.4369 34.4917C63.3925 34.2969 63.3378 34.0713 63.2694 33.8354C59.8104 34.731 59.2089 34.9395 58.8021 35.1924C58.7167 34.8711 58.4535 34.1123 58.2689 33.709C58.5355 33.6099 58.7303 33.2886 58.9559 32.7827C59.1371 32.3623 59.6293 30.9507 59.9369 29.4673L58.2142 29.4673L58.2142 27.9531L64.3871 27.9531L64.3871 29.4673L61.6425 29.4673C61.3485 30.6567 60.9315 31.9146 60.4667 32.9946L62.849 32.4478C62.6371 31.8462 62.4286 31.2446 62.2167 30.7114L63.5463 30.3491C64.0385 31.4805 64.599 32.9536 64.8485 33.9312C65.662 32.4067 65.9696 30.4756 66.0687 28.2607L64.5546 28.2607L64.5546 26.6646L66.1234 26.6646C66.1371 25.7827 66.1371 24.8462 66.1371 23.8926L67.7914 23.8926ZM33.8682 24.2446L34.1074 24.1729L35.2388 24.8325C34.8628 26.063 34.3706 27.6182 33.9536 28.7256C34.8491 29.8296 35.0166 30.7969 35.0166 31.6069C35.0166 32.5332 34.8184 33.1074 34.3569 33.4424C34.1484 33.6099 33.8682 33.709 33.5469 33.75C33.2803 33.791 32.9316 33.791 32.6069 33.791C32.5933 33.3569 32.4668 32.7144 32.231 32.2939C32.4805 32.3213 32.6924 32.3213 32.8462 32.3076C33 32.3076 33.1401 32.2803 33.2666 32.1948C33.4341 32.0684 33.5024 31.7915 33.5024 31.3848C33.5024 30.7388 33.3076 29.8433 32.4976 28.8931C32.8052 27.9976 33.1128 26.709 33.335 25.728L32.1045 25.728L32.1045 36.7168L30.5493 36.7168L30.5493 24.2446L33.8682 24.2446ZM52.9916 24.6924L56.8129 24.6924L56.8129 33.2031C56.8129 33.8047 56.7446 34.2524 56.3788 34.5464C56.0439 34.813 55.6508 34.8574 55.0493 34.8574C55.0219 34.4233 54.8271 33.7363 54.6288 33.3296L55.2167 33.3296C55.3159 33.3296 55.3432 33.2886 55.3432 33.1621L55.3432 26.1484L54.475 26.1484L54.475 36.7305L52.9916 36.7305L52.9916 24.6924ZM58.662 24.7197L64.1376 24.7197L64.1376 26.1895L58.662 26.1895L58.662 24.7197ZM43.7392 29.915C44.7304 29.1289 45.8242 27.9121 46.4667 26.7363L47.8954 27.2969C47.6015 27.7993 47.2802 28.3462 46.9008 28.8623L46.9008 36.7168L45.3901 36.7168L45.3901 30.6978C45.0961 31.019 44.7885 31.313 44.5082 31.5659C44.3954 31.2036 43.9887 30.3047 43.7392 29.915ZM79.0467 31.6514C78.5682 31.1729 77.5633 30.4585 76.7498 30.0107L78.1922 29.1426C78.9886 29.563 80.0413 30.2227 80.5848 30.7251L79.0467 31.6514ZM79.1014 34.2969C78.7391 33.6509 77.8846 32.6152 77.1702 31.9009L78.4451 31.1455C79.1732 31.8052 80.0823 32.769 80.4754 33.4424L79.1014 34.2969ZM83.4012 36.1426C83.1619 35.1377 82.5023 33.5107 81.8323 32.2803L83.3021 31.8052C83.9891 32.9946 84.7034 34.5635 84.9666 35.5991L83.4012 36.1426ZM74.8323 32.4614C74.5521 33.709 74.159 35.2471 73.5848 36.2417L72.074 35.4863C72.6483 34.5464 73.1097 33.1895 73.3489 31.959L74.8323 32.4614ZM76.8489 34.4507C76.8489 34.8984 76.9891 34.9531 77.7991 34.9531L80.2088 34.9531C80.8924 34.9531 81.0052 34.7446 81.0906 33.3296C81.4529 33.5962 82.14 33.8354 82.5877 33.9312C82.3929 35.9341 81.9007 36.4365 80.3353 36.4365L77.6317 36.4365C75.7005 36.4365 75.1946 35.9751 75.1946 34.4644L75.1946 32.0684L76.8489 32.0684L76.8489 34.4507Z" fill="#49E6F1FF"/>
	<g filter="url(#filter_6_103_dd)"/>
	<path id="矢量 8" d="M20.5 23.5L20.5 36.5" stroke="#8AF7FF" stroke-width="2.000000"/>
	<path id="矢量 8" d="M20.5 23.5L20.5 36.5" stroke="#8AF7FF" stroke-width="2.000000"/>
	<defs>
		<filter id="filter_6_92_dd" x="0.500000" y="4.500000" width="972.057983" height="56.000000" filterUnits="userSpaceOnUse" color-interpolation-filters="sRGB">
			<feFlood flood-opacity="0" result="BackgroundImageFix"/>
			<feColorMatrix in="SourceAlpha" type="matrix" values="0 0 0 0 0 0 0 0 0 0 0 0 0 0 0 0 0 0 127 0"/>
			<feOffset dx="0" dy="4"/>
			<feGaussianBlur stdDeviation="1.33333"/>
			<feColorMatrix type="matrix" values="0 0 0 0 0 0 0 0 0 0 0 0 0 0 0 0 0 0 0.25 0"/>
			<feBlend mode="normal" in2="BackgroundImageFix" result="effect_dropShadow_1"/>
			<feBlend mode="normal" in="SourceGraphic" in2="effect_dropShadow_1" result="shape"/>
		</filter>
		<filter id="filter_6_93_dd" x="0.000000" y="0.000000" width="971.897461" height="55.500000" filterUnits="userSpaceOnUse" color-interpolation-filters="sRGB">
			<feFlood flood-opacity="0" result="BackgroundImageFix"/>
			<feBlend mode="normal" in="SourceGraphic" in2="BackgroundImageFix" result="shape"/>
			<feGaussianBlur stdDeviation="1.33333" result="effect_layerBlur_1"/>
		</filter>
		<filter id="filter_6_103_dd" x="15.500000" y="19.500000" width="10.000000" height="21.000000" filterUnits="userSpaceOnUse" color-interpolation-filters="sRGB">
			<feFlood flood-opacity="0" result="BackgroundImageFix"/>
			<feBlend mode="normal" in="SourceGraphic" in2="BackgroundImageFix" result="shape"/>
			<feGaussianBlur stdDeviation="1.33333" result="effect_layerBlur_1"/>
		</filter>
		<linearGradient id="paint_linear_6_90_0" x1="5.679131" y1="39.457031" x2="967.431580" y2="45.752930" gradientUnits="userSpaceOnUse">
			<stop stop-color="#0C4455"/>
			<stop offset="1.000000" stop-color="#FFFFFF" stop-opacity="0.000000"/>
		</linearGradient>
		<linearGradient id="paint_linear_6_92_0" x1="5.499474" y1="38.810547" x2="1093.533203" y2="40.634766" gradientUnits="userSpaceOnUse">
			<stop stop-color="#0C4455"/>
			<stop offset="1.000000" stop-color="#FFFFFF" stop-opacity="0.000000"/>
		</linearGradient>
		<linearGradient id="paint_linear_6_92_1" x1="5.499680" y1="35.499023" x2="967.820312" y2="29.000000" gradientUnits="userSpaceOnUse">
			<stop stop-color="#49E6F1"/>
			<stop offset="1.000000" stop-color="#49E6F1" stop-opacity="0.000000"/>
		</linearGradient>
		<linearGradient id="paint_linear_6_93_0" x1="5.499458" y1="38.102539" x2="1092.402466" y2="39.888672" gradientUnits="userSpaceOnUse">
			<stop stop-color="#0C4455"/>
			<stop offset="1.000000" stop-color="#FFFFFF" stop-opacity="0.000000"/>
		</linearGradient>
		<linearGradient id="paint_linear_6_93_1" x1="5.500328" y1="38.000000" x2="966.820312" y2="28.500000" gradientUnits="userSpaceOnUse">
			<stop stop-color="#49E6F1"/>
			<stop offset="1.000000" stop-color="#49E6F1" stop-opacity="0.000000"/>
		</linearGradient>
	</defs>
</svg>
