<svg width="536.966614" height="52.500000" viewBox="0 0 536.967 52.5" fill="none" xmlns="http://www.w3.org/2000/svg" xmlns:xlink="http://www.w3.org/1999/xlink">
	<desc>
			Created with Pixso.
	</desc>
	<path id="矢量 2" d="M4.5 39.4351L4.5 14.1104L12.2571 5.5L173 5.75L184.638 17.5615L516.228 17.6559L531.5 31.3312L531.5 44.5L4.5 44.5L4.5 39.4351Z" fill-rule="evenodd" fill="url(#paint_linear_6_184_0)"/>
	<g filter="url(#filter_6_186_dd)">
		<path id="矢量 1" d="" fill-rule="nonzero" fill="url(#paint_linear_6_186_0)"/>
	</g>
	<path id="矢量 1" d="M5.5 44.5L5.5 13.8301L11.2527 5.5L174.124 5.5L185.63 17.6165L520.315 17.2322L531.82 30.864" stroke="url(#paint_linear_6_186_1)" stroke-width="2.000000"/>
	<g filter="url(#filter_6_187_dd)">
		<path id="矢量 4" d="" fill-rule="nonzero" fill="url(#paint_linear_6_187_0)"/>
	</g>
	<path id="矢量 4" d="M5.5 44.5L5.5 14.4536C5.5 14.0475 5.62354 13.6512 5.85425 13.3171L10.6564 6.36349C11.0298 5.82278 11.6449 5.5 12.302 5.5L173.266 5.5C173.814 5.5 174.338 5.72516 174.716 6.12283L185.04 16.9952C185.417 17.392 185.939 17.6181 186.486 17.6181L519.389 18.2307C519.976 18.2307 520.534 18.4915 520.913 18.9408L531.82 31.8643" stroke="url(#paint_linear_6_187_1)" stroke-width="3.000000"/>
	<path id="矢量 36" d="M486.5 34.15L493.018 34.15L495.463 25.75L497.907 39.75L501.982 32.47L508.5 34.15" stroke="#49E6F1" stroke-width="1.500000" stroke-linecap="round"/>
	<path id="7天拦截趋势图" d="M85.3391 29.6294L83.6608 29.6294L83.6608 31.7007C84.5427 32.022 85.6193 32.0903 86.8942 32.0903C87.8752 32.0903 91.2624 32.0903 92.3972 32.0356C92.1579 32.4014 91.8913 33.1431 91.7922 33.6455L86.8942 33.6455C84.2487 33.6455 82.3723 33.2969 81.1384 31.4888C80.9572 32.4971 80.6769 33.3516 80.2429 34.0659C80.0207 33.813 79.361 33.3105 79.0397 33.0986C79.8361 31.8271 79.9489 29.7388 79.9626 27.4727L81.4631 27.5547C81.4494 28.1733 81.4186 28.7886 81.3913 29.3628C81.5861 29.8652 81.8254 30.272 82.1057 30.5933L82.1057 26.7856L79.3884 26.7856L79.3884 25.2476L81.8527 25.2476L81.8527 24.0547L79.8942 24.0547L79.8942 22.5439L81.8527 22.5439L81.8527 20.8931L83.4352 20.8931L83.4352 22.5439L85.0724 22.5439L85.0724 24.0547L83.4352 24.0547L83.4352 25.2476L85.4382 25.2476L85.4382 26.7856L83.6608 26.7856L83.6608 28.187L85.3391 28.187L85.3391 29.6294ZM103.133 22.1372L103.133 22.1235L104.647 22.1235C104.534 24.8682 104.521 26.5327 104.869 26.5327C105.037 26.5327 105.109 26.1704 105.15 25.3706C105.457 25.6372 105.963 25.8628 106.325 25.9585C106.185 27.5137 105.765 27.9478 104.801 27.9478C103.273 27.9478 103.106 26.1978 103.119 23.5112L101.93 23.5112C101.858 24.1265 101.749 24.687 101.581 25.1895C102.183 25.5688 102.726 25.9312 103.106 26.2251L102.237 27.5137C101.916 27.2471 101.441 26.8984 100.935 26.5327C100.573 27.0522 100.081 27.4863 99.4655 27.8623L100.026 27.8623C99.9987 28.1426 99.9542 28.4229 99.9269 28.6895L104.968 28.6895C104.968 28.6895 104.955 29.1372 104.91 29.3491C104.688 31.7827 104.435 32.8901 103.974 33.3379C103.594 33.7173 103.177 33.8267 102.586 33.8711C102.097 33.9258 101.256 33.9121 100.361 33.8848C100.334 33.4097 100.108 32.791 99.8312 32.3706C100.682 32.4424 101.564 32.4561 101.943 32.4561C102.224 32.4561 102.405 32.4424 102.559 32.3159C102.798 32.1074 102.993 31.4614 103.147 30.1592L99.5509 30.1592C98.9049 31.9229 97.5343 33.2388 94.1608 34.0112C94.007 33.5635 93.6139 32.9175 93.2926 32.5688C95.9108 32.0493 97.1002 31.2393 97.7018 30.1592L93.9215 30.1592L93.9215 28.6895L98.1906 28.6895C98.2487 28.4229 98.276 28.1426 98.317 27.8623L98.9493 27.8623C98.7374 27.5137 98.4161 27.1069 98.1495 26.8848C98.8092 26.5635 99.298 26.1841 99.6329 25.709C99.2706 25.4697 98.9049 25.2612 98.5973 25.0767L98.611 25.4971C98.0504 25.5825 97.4933 25.6646 96.9327 25.75L96.9327 26.5908C96.9327 27.3188 96.8063 27.6812 96.3141 27.9067C95.8527 28.1289 95.1964 28.1426 94.2701 28.1426C94.2155 27.7256 94.0206 27.1514 93.8361 26.7583C94.3966 26.772 94.9845 26.772 95.1691 26.772C95.3502 26.772 95.4049 26.7173 95.4049 26.5635L95.4049 25.9756L93.6002 26.2251L93.3336 24.728C93.9215 24.6733 94.6359 24.5879 95.4049 24.4888L95.4049 23.5659L93.5592 23.5659L93.5592 22.1099L95.4049 22.1099L95.4049 20.9067L96.9327 20.9067L96.9327 22.1099L98.4845 22.1099L98.4845 23.5659L96.9327 23.5659L96.9327 24.2939C97.4762 24.2256 98.0094 24.1401 98.5563 24.0854L98.5836 25.0356L99.3971 23.9316C99.6603 24.0547 99.9406 24.2085 100.221 24.3931C100.293 24.1128 100.347 23.8325 100.388 23.5112L98.8092 23.5112L98.8092 22.1372L100.501 22.1372C100.528 21.7476 100.528 21.3408 100.542 20.8931L102.084 20.8931C102.07 21.3271 102.07 21.7305 102.043 22.1372L103.133 22.1372ZM55.8284 26.9805L56.0096 28.5083L54.4988 28.8877L54.4988 32.1895C54.4988 32.9756 54.3587 33.3926 53.9246 33.6592C53.4905 33.9121 52.8582 33.9668 51.9354 33.9668C51.8943 33.5635 51.6824 32.8765 51.4876 32.415C52.0208 32.4424 52.5369 32.4424 52.7215 32.4287C52.9026 32.4287 52.9573 32.3706 52.9573 32.1895L52.9573 29.291L51.4056 29.6841L51.0809 28.0742C51.6141 27.9751 52.2567 27.835 52.9573 27.6675L52.9573 25.1211L51.4739 25.1211L51.4739 23.5796L52.9573 23.5796L52.9573 20.9067L54.4988 20.9067L54.4988 23.5796L55.8011 23.5796L55.8011 25.1211L54.4988 25.1211L54.4988 27.3052L55.8284 26.9805ZM74.9382 28.9561C75.3997 28.0742 75.7927 27.1206 76.0867 26.085L77.6111 26.519C77.0813 28.2144 76.3943 29.7251 75.4851 31.041C75.7791 31.7827 76.114 32.2168 76.4934 32.2168C76.7703 32.2168 76.9104 31.6597 76.9822 30.2036C77.3171 30.5522 77.864 30.9009 78.2434 31.0547C78.0042 33.2524 77.5291 33.813 76.3362 33.813C75.5125 33.813 74.8801 33.2969 74.3777 32.4287C73.8752 32.9893 73.3284 33.478 72.7131 33.9258C72.5593 33.6865 72.2927 33.3926 72.0398 33.1431L67.8972 33.1431L67.8972 33.7173L66.4822 33.7173L66.4822 29.1646C66.3694 29.2773 66.2566 29.3901 66.1472 29.4893C65.908 29.2363 65.3611 28.7749 65.0535 28.5493C65.9353 27.8213 66.7625 26.6592 67.2239 25.4971L68.6082 25.8765C68.4851 26.1841 68.3313 26.4917 68.1604 26.7993L69.4216 26.7993C69.2815 26.5327 69.1277 26.2524 68.9739 26.0303L70.2043 25.5244C70.4846 25.9038 70.7649 26.4097 70.9324 26.7993L72.3884 26.7993L72.3884 28.0332L70.6555 28.0332L70.6555 28.6211L72.1526 28.6211L72.1526 29.5986L70.6555 29.5986L70.6555 30.2173L72.1526 30.2173L72.1526 31.1948L70.6555 31.1948L70.6555 31.8408L72.3064 31.8408L72.3064 32.2305C72.8088 31.8135 73.301 31.335 73.7351 30.7915C73.3147 29.3628 73.0618 27.5273 72.9216 25.4971L65.4329 25.4971L65.4329 24.1128L68.3005 24.1128L68.3005 23.2856L66.0344 23.2856L66.0344 21.9287L68.3005 21.9287L68.3005 20.9067L69.9275 20.9067L69.9275 21.9287L72.0945 21.9287L72.0945 23.2856L69.9275 23.2856L69.9275 24.1128L72.8533 24.1128C72.8088 23.0771 72.7815 21.9971 72.7815 20.9204L74.4324 20.9204C74.405 22.0107 74.4187 23.0908 74.4631 24.1128L78.1033 24.1128L78.1033 25.4971L74.5315 25.4971C74.6169 26.7856 74.7571 27.9614 74.9382 28.9561ZM61.8201 23.8599L63.7923 23.8599L63.7923 25.4561L56.2044 25.4561L56.2044 23.8599L58.0672 23.8599C57.845 23.2173 57.3118 22.3047 56.8231 21.6211L58.1253 21.0024C58.6551 21.6895 59.2567 22.6431 59.4959 23.2583L58.3338 23.8599L60.1693 23.8599C60.658 23.0327 61.2186 21.8159 61.5262 20.9204L63.1771 21.4092C62.743 22.2363 62.2542 23.1455 61.8201 23.8599ZM89.9465 26.4233L85.8996 26.4233L85.8996 25.6646C85.6057 25.3433 85.0861 24.9092 84.7375 24.7144C85.8005 23.6514 86.5012 22.2637 86.8361 21.1016L88.405 21.3545C88.3093 21.6074 88.2101 21.8706 88.111 22.1372L90.2541 22.1372L90.4933 22.0688L91.57 22.4038C91.235 23.2173 90.8146 24.1265 90.4216 24.9536L91.5837 24.9536L91.5837 31.1812L85.6057 31.1812L85.6057 29.7114L89.9465 29.7114L89.9465 28.7612L86.1662 28.7612L86.1662 27.3462L89.9465 27.3462L89.9465 26.4233ZM75.9602 21.1152C76.6472 21.6621 77.4709 22.4756 77.8367 23.0464L76.5618 23.959C76.2405 23.3711 75.4543 22.5166 74.7981 21.915L75.9602 21.1152ZM107.781 33.9805L107.781 21.4229L119.737 21.4229L119.737 33.9805L118.059 33.9805L118.059 33.478L109.378 33.478L109.378 33.9805L107.781 33.9805ZM49.8231 26.0303L49.8231 27.7393L44.9354 27.7393C45.9164 29.9644 47.7074 31.6016 50.4384 32.3159C50.0316 32.6646 49.5292 33.3926 49.2899 33.8711C46.6581 33.0303 44.9628 31.4067 43.787 29.1099C43.0179 30.9727 41.4354 32.7363 38.2875 33.9121C38.0619 33.4917 37.5594 32.791 37.1937 32.4697C40.4271 31.3213 41.8011 29.5166 42.3754 27.7393L37.6825 27.7393L37.6825 26.0303L42.724 26.0303C42.7513 25.6509 42.765 25.3022 42.765 24.9536L42.765 23.5386L38.1884 23.5386L38.1884 21.8296L49.2762 21.8296L49.2762 23.5386L44.515 23.5386L44.515 24.981C44.515 25.3159 44.5013 25.6646 44.4877 26.0303L49.8231 26.0303ZM33.1895 32.75L31.1045 32.75C31.2856 29.1509 31.8872 26.8574 33.8628 24.1128L29.2007 24.1128L29.2007 22.3901L36.0879 22.3901L36.0879 23.6377C33.6816 26.5771 33.3569 28.6895 33.1895 32.75ZM109.449 25.5825C110.581 24.9365 111.715 23.959 112.402 22.9233L109.378 22.9233L109.378 27.6128C110.386 27.4146 111.435 27.1206 112.389 26.7446C112.023 26.478 111.688 26.2114 111.394 25.9312C111.114 26.1704 110.82 26.3789 110.54 26.5635C110.287 26.2969 109.757 25.8047 109.449 25.5825ZM115.229 26.772C116.111 27.1069 117.092 27.3599 118.059 27.541L118.059 22.9233L112.611 22.9233L113.8 23.3403C113.66 23.5522 113.506 23.7744 113.339 23.9863L116.391 23.9863L116.63 23.9316L117.567 24.4888C117.006 25.3569 116.183 26.1123 115.229 26.772ZM88.7433 24.9536C88.9929 24.4614 89.2731 23.959 89.4987 23.4668L87.4958 23.4668C87.2292 23.9863 86.9079 24.4751 86.5593 24.9536L88.7433 24.9536ZM113.759 26.0986C114.293 25.8491 114.74 25.5415 115.147 25.2168L112.457 25.2168C112.823 25.5415 113.257 25.8491 113.759 26.0986ZM116.924 30.9009L116.237 32.0083L118.059 32.0083L118.059 27.7529C117.779 28.0742 117.471 28.522 117.314 28.8159C116.097 28.563 114.908 28.1426 113.831 27.5854C113.465 27.7803 113.086 27.9478 112.71 28.1152C113.814 28.3545 115.13 28.7612 115.916 29.1099L115.243 30.1318C114.419 29.7524 112.932 29.25 111.756 28.9971L112.276 28.2827C111.521 28.5767 110.734 28.8159 109.979 28.9971C109.866 28.6758 109.617 28.2007 109.378 27.8623L109.378 32.0083L115.998 32.0083C114.6 31.5024 112.331 31 110.485 30.7915L111.24 29.7114C113.13 29.9097 115.496 30.4121 116.924 30.9009ZM63.136 27.7529L63.136 29.3354L56.7786 29.3354L56.7786 27.7529L63.136 27.7529ZM67.8972 28.6211L69.3225 28.6211L69.3225 28.0332L67.8972 28.0332L67.8972 28.6211ZM67.8972 30.2173L69.3225 30.2173L69.3225 29.5986L67.8972 29.5986L67.8972 30.2173ZM69.3225 31.1948L67.8972 31.1948L67.8972 31.8408L69.3225 31.8408L69.3225 31.1948ZM55.6336 33.3516L55.6336 31.7554L64.117 31.7554L64.117 33.3516L55.6336 33.3516Z" fill="#49E6F1FF"/>
	<g filter="url(#filter_6_245_dd)"/>
	<path id="矢量 8" d="M19.5 20.75L19.5 33.75" stroke="#8AF7FF" stroke-width="2.000000"/>
	<path id="矢量 8" d="M19.5 20.75L19.5 33.75" stroke="#8AF7FF" stroke-width="2.000000"/>
	<defs>
		<filter id="filter_6_186_dd" x="0.500000" y="4.500000" width="536.084534" height="48.000000" filterUnits="userSpaceOnUse" color-interpolation-filters="sRGB">
			<feFlood flood-opacity="0" result="BackgroundImageFix"/>
			<feColorMatrix in="SourceAlpha" type="matrix" values="0 0 0 0 0 0 0 0 0 0 0 0 0 0 0 0 0 0 127 0"/>
			<feOffset dx="0" dy="4"/>
			<feGaussianBlur stdDeviation="1.33333"/>
			<feColorMatrix type="matrix" values="0 0 0 0 0 0 0 0 0 0 0 0 0 0 0 0 0 0 0.25 0"/>
			<feBlend mode="normal" in2="BackgroundImageFix" result="effect_dropShadow_1"/>
			<feBlend mode="normal" in="SourceGraphic" in2="effect_dropShadow_1" result="shape"/>
		</filter>
		<filter id="filter_6_187_dd" x="0.000000" y="0.000000" width="536.966614" height="48.500000" filterUnits="userSpaceOnUse" color-interpolation-filters="sRGB">
			<feFlood flood-opacity="0" result="BackgroundImageFix"/>
			<feBlend mode="normal" in="SourceGraphic" in2="BackgroundImageFix" result="shape"/>
			<feGaussianBlur stdDeviation="1.33333" result="effect_layerBlur_1"/>
		</filter>
		<filter id="filter_6_245_dd" x="14.500000" y="16.750000" width="10.000000" height="21.000000" filterUnits="userSpaceOnUse" color-interpolation-filters="sRGB">
			<feFlood flood-opacity="0" result="BackgroundImageFix"/>
			<feBlend mode="normal" in="SourceGraphic" in2="BackgroundImageFix" result="shape"/>
			<feGaussianBlur stdDeviation="1.33333" result="effect_layerBlur_1"/>
		</filter>
		<linearGradient id="paint_linear_6_184_0" x1="4.499613" y1="33.140625" x2="531.500000" y2="35.750000" gradientUnits="userSpaceOnUse">
			<stop stop-color="#0C4455"/>
			<stop offset="1.000000" stop-color="#FFFFFF" stop-opacity="0.000000"/>
		</linearGradient>
		<linearGradient id="paint_linear_6_186_0" x1="5.499673" y1="33.140869" x2="600.576050" y2="34.655518" gradientUnits="userSpaceOnUse">
			<stop stop-color="#0C4455"/>
			<stop offset="1.000000" stop-color="#FFFFFF" stop-opacity="0.000000"/>
		</linearGradient>
		<linearGradient id="paint_linear_6_186_1" x1="5.499840" y1="30.999756" x2="548.499939" y2="32.999756" gradientUnits="userSpaceOnUse">
			<stop stop-color="#49E6F1"/>
			<stop offset="1.000000" stop-color="#49E6F1" stop-opacity="0.000000"/>
		</linearGradient>
		<linearGradient id="paint_linear_6_187_0" x1="5.499673" y1="33.140869" x2="600.576050" y2="34.655518" gradientUnits="userSpaceOnUse">
			<stop stop-color="#0C4455"/>
			<stop offset="1.000000" stop-color="#FFFFFF" stop-opacity="0.000000"/>
		</linearGradient>
		<linearGradient id="paint_linear_6_187_1" x1="5.499806" y1="30.000244" x2="531.820312" y2="30.999756" gradientUnits="userSpaceOnUse">
			<stop stop-color="#49E6F1"/>
			<stop offset="1.000000" stop-color="#49E6F1" stop-opacity="0.000000"/>
		</linearGradient>
	</defs>
</svg>
