<svg width="18.000000" height="18.000000" viewBox="0 0 18 18" fill="none" xmlns="http://www.w3.org/2000/svg" xmlns:xlink="http://www.w3.org/1999/xlink">
	<desc>
			Created with Pixso.
	</desc>
	<defs/>
	<path id="矢量 1054 (边框)" d="M17.0316 6.94977L14.2776 2.72681L14.1296 2.49994L4.27039 2.49994L1.36841 6.94977L9.19995 15.4268L17.0316 6.94977ZM13.588 3.49994L15.7684 6.84344L9.19995 13.9531L2.63159 6.84344L4.81201 3.49994L13.588 3.49994Z" fill-rule="evenodd" fill="#FFA904"/>
	<path id="专" d="M12.1647 7.11316L12.1647 6.56842L8.65515 6.56842C8.73718 6.27197 8.81921 5.96814 8.90796 5.67169L11.6709 5.67169L11.6709 5.13257L9.04517 5.13257C9.12708 4.8454 9.20239 4.56378 9.27112 4.29883L8.73047 4.29883C8.67529 4.56378 8.59998 4.8454 8.52466 5.13257L6.78247 5.13257L6.78247 5.67169L8.38074 5.67169C8.29871 5.96814 8.20837 6.27197 8.11963 6.56842L6.23523 6.56842L6.23523 7.11316L7.96228 7.11316C7.80505 7.62262 7.65442 8.10065 7.51721 8.48047L10.6969 8.48047C10.3137 8.91956 9.80664 9.45874 9.34631 9.93671C8.84595 9.73291 8.33887 9.54211 7.88708 9.40497L7.59912 9.81628C8.64844 10.1572 9.99744 10.7723 10.6635 11.2263L10.9714 10.7408C10.6836 10.5518 10.2936 10.3536 9.85352 10.1498C10.4844 9.49023 11.1772 8.73798 11.6709 8.17664L11.2877 7.91907L11.1973 7.94873L8.24353 7.94873C8.32556 7.69122 8.40747 7.40961 8.49622 7.11316L12.1647 7.11316Z" fill-rule="nonzero" fill="#FFA904"/>
</svg>
