<svg width="401.466675" height="52.500000" viewBox="0 0 401.467 52.5" fill="none" xmlns="http://www.w3.org/2000/svg" xmlns:xlink="http://www.w3.org/1999/xlink">
	<desc>
			Created with Pixso.
	</desc>
	<g filter="url(#filter_6_49_dd)">
		<path id="矢量 53" d="" fill-rule="nonzero" fill="url(#paint_linear_6_49_0)"/>
	</g>
	<path id="矢量 53" d="M5.32031 44.5L5.32031 13.8301L11.0729 5.5L173.945 5.5L185.45 17.6165L384.635 17.6165L396.141 31.2476" stroke="url(#paint_linear_6_49_1)" stroke-width="2.000000"/>
	<g filter="url(#filter_6_50_dd)">
		<path id="矢量 4" d="" fill-rule="nonzero" fill="url(#paint_linear_6_50_0)"/>
	</g>
	<path id="矢量 4" d="M5.5 44.5L5.5 14.4536C5.5 14.0475 5.6236 13.6512 5.85431 13.3171L10.6563 6.36349C11.0297 5.82278 11.6449 5.5 12.3021 5.5L173.266 5.5C173.814 5.5 174.338 5.72516 174.716 6.12283L185.038 16.9937C185.416 17.3913 185.94 17.6165 186.489 17.6165L383.886 17.6165C384.475 17.6165 385.034 17.8763 385.414 18.3265L396.32 31.2476" stroke="url(#paint_linear_6_50_1)" stroke-width="3.000000"/>
	<path id="矢量 2" d="M5.5 40L5.5 15L11.2474 6.5L173.969 6.5L185.644 18.5L384.646 18.5L395.961 32L395.961 45L5.5 45L5.5 40Z" fill-rule="evenodd" fill="url(#paint_linear_6_47_0)"/>
	<path id="今日网站拦截TOP5" d="M29.7135 25.5C32.1608 24.4507 34.6559 22.6597 36.0402 20.4893L37.7047 21.2583C37.609 21.3984 37.5099 21.5386 37.4108 21.6787C38.7848 23.0903 41.0236 24.5464 42.9274 25.3599C42.4933 25.7256 41.9191 26.4365 41.6251 26.9014C39.8888 25.9888 37.9303 24.4917 36.4196 22.9092C34.8781 24.6455 32.9606 26.0332 31.0021 27.0552C30.7218 26.5767 30.2023 25.9341 29.7135 25.5ZM84.8452 23.2168L84.8452 24.7993L81.5947 24.7993L81.5947 27.209L84.3666 27.209L84.3666 33.6621L82.6611 33.6621L82.6611 33.0469L79.3422 33.0469L79.3422 33.7168L77.7187 33.7168L77.7187 27.209L79.8891 27.209L79.8891 20.6431L81.5947 20.6431L81.5947 23.2168L84.8452 23.2168ZM90.4027 26.7305L90.5839 28.2583L89.0731 28.6377L89.0731 31.9395C89.0731 32.7256 88.933 33.1426 88.4989 33.4092C88.0648 33.6621 87.4325 33.7168 86.5096 33.7168C86.4686 33.3135 86.2567 32.6265 86.0619 32.165C86.5951 32.1924 87.1112 32.1924 87.2958 32.1787C87.4769 32.1787 87.5316 32.1206 87.5316 31.9395L87.5316 29.041L85.9799 29.4341L85.6552 27.8242C86.1884 27.7251 86.8309 27.585 87.5316 27.4175L87.5316 24.8711L86.0482 24.8711L86.0482 23.3296L87.5316 23.3296L87.5316 20.6567L89.0731 20.6567L89.0731 23.3296L90.3754 23.3296L90.3754 24.8711L89.0731 24.8711L89.0731 27.0552L90.4027 26.7305ZM109.513 28.7061C109.974 27.8242 110.367 26.8706 110.661 25.835L112.185 26.269C111.656 27.9644 110.969 29.4751 110.059 30.791C110.353 31.5327 110.688 31.9668 111.068 31.9668C111.345 31.9668 111.485 31.4097 111.556 29.9536C111.891 30.3022 112.438 30.6509 112.818 30.8047C112.578 33.0024 112.103 33.563 110.91 33.563C110.087 33.563 109.454 33.0469 108.952 32.1787C108.45 32.7393 107.903 33.228 107.287 33.6758C107.134 33.4365 106.867 33.1426 106.614 32.8931L102.471 32.8931L102.471 33.4673L101.056 33.4673L101.056 28.9146C100.944 29.0273 100.831 29.1401 100.721 29.2393C100.482 28.9863 99.9354 28.5249 99.6277 28.2993C100.51 27.5713 101.337 26.4092 101.798 25.2471L103.182 25.6265C103.059 25.9341 102.906 26.2417 102.735 26.5493L103.996 26.5493C103.856 26.2827 103.702 26.0024 103.548 25.7803L104.779 25.2744C105.059 25.6538 105.339 26.1597 105.507 26.5493L106.963 26.5493L106.963 27.7832L105.23 27.7832L105.23 28.3711L106.727 28.3711L106.727 29.3486L105.23 29.3486L105.23 29.9673L106.727 29.9673L106.727 30.9448L105.23 30.9448L105.23 31.5908L106.881 31.5908L106.881 31.9805C107.383 31.5635 107.875 31.085 108.309 30.5415C107.889 29.1128 107.636 27.2773 107.496 25.2471L100.007 25.2471L100.007 23.8628L102.875 23.8628L102.875 23.0356L100.609 23.0356L100.609 21.6787L102.875 21.6787L102.875 20.6567L104.502 20.6567L104.502 21.6787L106.669 21.6787L106.669 23.0356L104.502 23.0356L104.502 23.8628L107.428 23.8628C107.383 22.8271 107.356 21.7471 107.356 20.6704L109.007 20.6704C108.979 21.7607 108.993 22.8408 109.037 23.8628L112.678 23.8628L112.678 25.2471L109.106 25.2471C109.191 26.5356 109.331 27.7114 109.513 28.7061ZM96.3944 23.6099L98.3666 23.6099L98.3666 25.2061L90.7787 25.2061L90.7787 23.6099L92.6415 23.6099C92.4193 22.9673 91.8861 22.0547 91.3973 21.3711L92.6996 20.7524C93.2294 21.4395 93.8309 22.3931 94.0702 23.0083L92.9081 23.6099L94.7435 23.6099C95.2323 22.7827 95.7928 21.5659 96.1005 20.6704L97.7513 21.1592C97.3173 21.9863 96.8285 22.8955 96.3944 23.6099ZM75.0151 20.7114C75.4081 21.3267 75.7739 22.1675 75.9413 22.7144L74.8066 23.0903L77.6332 23.0903L77.6332 24.6182L72.0346 24.6182L72.0346 23.0903L74.3998 23.0903C74.246 22.5195 73.9111 21.7197 73.6035 21.1182L75.0151 20.7114ZM110.534 20.8652C111.221 21.4121 112.045 22.2256 112.411 22.7964L111.136 23.709C110.815 23.1211 110.029 22.2666 109.372 21.665L110.534 20.8652ZM58.4277 21.4121L70.2437 21.4121L70.2437 31.7036C70.2437 32.6401 70.0317 33.1016 69.4165 33.3682C68.8286 33.6484 67.9331 33.6895 66.6035 33.6758C66.5181 33.2144 66.2378 32.4453 65.9849 31.9976C66.766 32.0581 67.657 32.0543 68.0452 32.0526C68.0953 32.0524 68.137 32.0522 68.1689 32.0522C68.4629 32.0386 68.5757 31.9395 68.5757 31.6729L68.5757 22.9946L60.0923 22.9946L60.0923 25.4009L60.9058 24.5327C61.3398 24.9976 61.8013 25.5137 62.249 26.0332C62.4165 25.2607 62.5293 24.437 62.625 23.5962L64.1118 23.75C63.9409 25.0659 63.7051 26.2964 63.4111 27.4175C63.8999 28.0327 64.334 28.6377 64.6553 29.0991L63.647 30.2612C63.4521 29.9229 63.1719 29.5195 62.8506 29.0684C62.3892 30.2476 61.8149 31.2695 61.0732 32.0659C60.875 31.8848 60.458 31.5771 60.0923 31.3652L60.0923 33.6895L58.4277 33.6895L58.4277 21.4121ZM45.4908 33.5493L45.4908 21.4805L55.2217 21.4805L55.2217 33.522L53.4273 33.522L53.4273 32.6401L47.2134 32.6401L47.2134 33.5493L45.4908 33.5493ZM131.661 27.2773C131.661 30.6372 129.771 32.6948 127.026 32.6948C124.282 32.6948 122.391 30.6372 122.391 27.2773C122.391 23.9038 124.282 21.9453 127.026 21.9453C129.771 21.9453 131.661 23.9175 131.661 27.2773ZM118.724 32.5L116.653 32.5L116.653 23.8628L113.74 23.8628L113.74 22.1401L121.663 22.1401L121.663 23.8628L118.724 23.8628L118.724 32.5ZM135.762 32.5L133.691 32.5L133.691 22.1401L137.092 22.1401C139.389 22.1401 141.152 22.9365 141.152 25.3872C141.152 27.7524 139.375 28.8188 137.146 28.8188L135.762 28.8188L135.762 32.5ZM149.243 29.0547C149.243 31.3652 147.537 32.6948 145.616 32.6948C143.979 32.6948 142.889 32.0522 142.116 31.2832L143.07 29.9673C143.658 30.5415 144.386 31.0166 145.353 31.0166C146.43 31.0166 147.185 30.3296 147.185 29.1128C147.185 27.9097 146.484 27.2363 145.435 27.2363C144.82 27.2363 144.485 27.3901 143.883 27.7832L142.943 27.1646L143.224 22.1401L148.768 22.1401L148.768 23.8628L145.001 23.8628L144.806 26.0605C145.213 25.8623 145.575 25.7666 146.05 25.7666C147.787 25.7666 149.243 26.8022 149.243 29.0547ZM53.4273 26.1733L53.4273 23.1621L47.2134 23.1621L47.2134 26.1733L53.4273 26.1733ZM67.2461 27.4175C67.793 28.1729 68.2544 28.9316 68.5483 29.5605L67.4546 30.6099C67.2598 30.1758 66.9795 29.687 66.6582 29.1538C66.1831 30.3433 65.5679 31.3789 64.8091 32.1924C64.5288 31.9531 63.8589 31.4917 63.5239 31.3105C64.4878 30.4014 65.1611 29.1538 65.6499 27.6431C65.103 26.9014 64.5015 26.1597 63.8999 25.5137L64.9082 24.6045C65.3013 25.0112 65.7046 25.459 66.0977 25.9341C66.2515 25.1924 66.3779 24.4233 66.4634 23.6235L67.9331 23.7637C67.7793 25.0659 67.5537 26.2827 67.2461 27.4175ZM124.507 27.2773C124.507 29.4888 125.485 30.9038 127.026 30.9038C128.568 30.9038 129.545 29.4888 129.545 27.2773C129.545 25.0522 128.568 23.7227 127.026 23.7227C125.485 23.7227 124.507 25.0522 124.507 27.2773ZM135.762 23.7773L135.762 27.1816L137.006 27.1816C138.435 27.1816 139.122 26.5767 139.122 25.3872C139.122 24.1841 138.367 23.7773 136.938 23.7773L135.762 23.7773ZM37.6227 27.4038L40.0734 27.4038L40.3673 27.3184L41.6832 27.9507C40.463 29.7007 38.6993 31.9531 37.2159 33.8022L35.4933 33.0024C36.5153 31.7993 37.7047 30.3159 38.6583 29.0991L31.5182 29.0991L31.5182 27.4038L37.0211 27.4038C36.4059 26.7749 35.4249 25.9751 34.6696 25.4009L35.7462 24.3516C36.6281 24.9805 37.8893 25.9067 38.4908 26.522L37.6227 27.4038ZM77.1308 25.2607C76.8642 26.7886 76.5156 28.6069 76.1635 29.9365L77.3256 29.687L77.4931 31.2251C75.6884 31.6729 73.7573 32.1206 72.2875 32.459L71.9218 30.8047C72.7079 30.6816 73.7128 30.4697 74.8203 30.2476C75.1415 28.8188 75.4628 26.6074 75.603 25.0112L77.1308 25.2607ZM73.0429 30.0083C73.0019 28.7471 72.749 26.8159 72.496 25.3462L73.7709 25.1206C74.0649 26.5903 74.3178 28.4531 74.3998 29.728L73.0429 30.0083ZM61.8149 27.6978C61.2407 26.9971 60.6528 26.269 60.0923 25.6538L60.0923 30.8628C60.834 30.0493 61.3945 28.959 61.8149 27.6978ZM97.7103 27.5029L97.7103 29.0854L91.3529 29.0854L91.3529 27.5029L97.7103 27.5029ZM102.471 28.3711L103.897 28.3711L103.897 27.7832L102.471 27.7832L102.471 28.3711ZM47.2134 27.8242L47.2134 30.9585L53.4273 30.9585L53.4273 27.8242L47.2134 27.8242ZM79.3422 31.4917L82.6611 31.4917L82.6611 28.7607L79.3422 28.7607L79.3422 31.4917ZM102.471 29.9673L103.897 29.9673L103.897 29.3486L102.471 29.3486L102.471 29.9673ZM103.897 30.9448L102.471 30.9448L102.471 31.5908L103.897 31.5908L103.897 30.9448ZM90.2079 33.1016L90.2079 31.5054L98.6913 31.5054L98.6913 33.1016L90.2079 33.1016Z" fill="#49E6F1FF"/>
	<g filter="url(#filter_6_56_dd)">
		<path id="矢量 5" d="M368.026 36.5L381.32 36.5L370.875 28.5L356.157 28.5L368.026 36.5Z" fill-rule="evenodd" fill="url(#paint_linear_6_56_0)"/>
	</g>
	<g filter="url(#filter_6_57_dd)">
		<path id="矢量 6" d="M342.108 36.5L355.402 36.5L344.957 28.5L330.239 28.5L342.108 36.5Z" fill-rule="evenodd" fill="url(#paint_linear_6_57_0)"/>
	</g>
	<g filter="url(#filter_6_58_dd)">
		<path id="矢量 7" d="M314.19 36.5L327.484 36.5L317.039 28.5L302.32 28.5L314.19 36.5Z" fill-rule="evenodd" fill="url(#paint_linear_6_58_0)"/>
	</g>
	<g filter="url(#filter_6_60_dd)"/>
	<path id="矢量 8" d="M20.3204 20.5L20.3204 33.5" stroke="#8AF7FF" stroke-width="2.000000"/>
	<path id="矢量 8" d="M20.3204 20.5L20.3204 33.5" stroke="#8AF7FF" stroke-width="2.000000"/>
	<defs>
		<filter id="filter_6_49_dd" x="0.320312" y="4.500000" width="400.584595" height="48.000000" filterUnits="userSpaceOnUse" color-interpolation-filters="sRGB">
			<feFlood flood-opacity="0" result="BackgroundImageFix"/>
			<feColorMatrix in="SourceAlpha" type="matrix" values="0 0 0 0 0 0 0 0 0 0 0 0 0 0 0 0 0 0 127 0"/>
			<feOffset dx="0" dy="4"/>
			<feGaussianBlur stdDeviation="1.33333"/>
			<feColorMatrix type="matrix" values="0 0 0 0 0 0 0 0 0 0 0 0 0 0 0 0 0 0 0.25 0"/>
			<feBlend mode="normal" in2="BackgroundImageFix" result="effect_dropShadow_1"/>
			<feBlend mode="normal" in="SourceGraphic" in2="effect_dropShadow_1" result="shape"/>
		</filter>
		<filter id="filter_6_50_dd" x="0.000000" y="0.000000" width="401.466675" height="48.500000" filterUnits="userSpaceOnUse" color-interpolation-filters="sRGB">
			<feFlood flood-opacity="0" result="BackgroundImageFix"/>
			<feBlend mode="normal" in="SourceGraphic" in2="BackgroundImageFix" result="shape"/>
			<feGaussianBlur stdDeviation="1.33333" result="effect_layerBlur_1"/>
		</filter>
		<filter id="filter_6_56_dd" x="354.156921" y="26.500000" width="29.163391" height="12.000000" filterUnits="userSpaceOnUse" color-interpolation-filters="sRGB">
			<feFlood flood-opacity="0" result="BackgroundImageFix"/>
			<feBlend mode="normal" in="SourceGraphic" in2="BackgroundImageFix" result="shape"/>
			<feGaussianBlur stdDeviation="0.666667" result="effect_layerBlur_1"/>
		</filter>
		<filter id="filter_6_57_dd" x="328.238708" y="26.500000" width="29.163391" height="12.000000" filterUnits="userSpaceOnUse" color-interpolation-filters="sRGB">
			<feFlood flood-opacity="0" result="BackgroundImageFix"/>
			<feBlend mode="normal" in="SourceGraphic" in2="BackgroundImageFix" result="shape"/>
			<feGaussianBlur stdDeviation="0.666667" result="effect_layerBlur_1"/>
		</filter>
		<filter id="filter_6_58_dd" x="300.320496" y="26.500000" width="29.163391" height="12.000000" filterUnits="userSpaceOnUse" color-interpolation-filters="sRGB">
			<feFlood flood-opacity="0" result="BackgroundImageFix"/>
			<feBlend mode="normal" in="SourceGraphic" in2="BackgroundImageFix" result="shape"/>
			<feGaussianBlur stdDeviation="0.666667" result="effect_layerBlur_1"/>
		</filter>
		<filter id="filter_6_60_dd" x="15.320435" y="16.500000" width="10.000000" height="21.000000" filterUnits="userSpaceOnUse" color-interpolation-filters="sRGB">
			<feFlood flood-opacity="0" result="BackgroundImageFix"/>
			<feBlend mode="normal" in="SourceGraphic" in2="BackgroundImageFix" result="shape"/>
			<feGaussianBlur stdDeviation="1.33333" result="effect_layerBlur_1"/>
		</filter>
		<linearGradient id="paint_linear_6_49_0" x1="5.320113" y1="33.140869" x2="447.195496" y2="34.655518" gradientUnits="userSpaceOnUse">
			<stop stop-color="#0C4455"/>
			<stop offset="1.000000" stop-color="#FFFFFF" stop-opacity="0.000000"/>
		</linearGradient>
		<linearGradient id="paint_linear_6_49_1" x1="5.320286" y1="25.000244" x2="396.140808" y2="20.999878" gradientUnits="userSpaceOnUse">
			<stop stop-color="#49E6F1"/>
			<stop offset="1.000000" stop-color="#49E6F1" stop-opacity="0.000000"/>
		</linearGradient>
		<linearGradient id="paint_linear_6_50_0" x1="5.499800" y1="33.140869" x2="447.375183" y2="34.655518" gradientUnits="userSpaceOnUse">
			<stop stop-color="#0C4455"/>
			<stop offset="1.000000" stop-color="#FFFFFF" stop-opacity="0.000000"/>
		</linearGradient>
		<linearGradient id="paint_linear_6_50_1" x1="2.320325" y1="21.000000" x2="409.820282" y2="19.000000" gradientUnits="userSpaceOnUse">
			<stop stop-color="#49E6F1"/>
			<stop offset="1.000000" stop-color="#49E6F1" stop-opacity="0.000000"/>
		</linearGradient>
		<linearGradient id="paint_linear_6_47_0" x1="5.499752" y1="33.786255" x2="395.961151" y2="40.500000" gradientUnits="userSpaceOnUse">
			<stop stop-color="#0C4455"/>
			<stop offset="1.000000" stop-color="#FFFFFF" stop-opacity="0.000000"/>
		</linearGradient>
		<linearGradient id="paint_linear_6_56_0" x1="368.738617" y1="28.500000" x2="368.738617" y2="36.500000" gradientUnits="userSpaceOnUse">
			<stop stop-color="#65CBD3"/>
			<stop offset="1.000000" stop-color="#65CBD3" stop-opacity="0.000000"/>
		</linearGradient>
		<linearGradient id="paint_linear_6_57_0" x1="342.820404" y1="28.500000" x2="342.820404" y2="36.500000" gradientUnits="userSpaceOnUse">
			<stop stop-color="#65CBD3"/>
			<stop offset="1.000000" stop-color="#65CBD3" stop-opacity="0.000000"/>
		</linearGradient>
		<linearGradient id="paint_linear_6_58_0" x1="314.902191" y1="28.500000" x2="314.902191" y2="36.500000" gradientUnits="userSpaceOnUse">
			<stop stop-color="#65CBD3"/>
			<stop offset="1.000000" stop-color="#65CBD3" stop-opacity="0.000000"/>
		</linearGradient>
	</defs>
</svg>
