<svg width="116.000000" height="32.000000" viewBox="0 0 116 32" fill="none" xmlns="http://www.w3.org/2000/svg" xmlns:xlink="http://www.w3.org/1999/xlink">
	<desc>
			Created with Pixso.
	</desc>
	<defs>
		<clipPath id="clip2_135">
			<rect id="vip-pro.svg" width="116.000000" height="32.000000" fill="white"/>
		</clipPath>
	</defs>
	<g clip-path="url(#clip2_135)">
		<path id="path" d="M114.1 32L28.9 32C27.2 32 26.3 29.9 27.5 28.7L41.5 13.2C42.1 12.5 42.2 11.5 41.6 10.7L36.3 3.19995C35.4 1.90002 36.3 0.0999756 37.9 0.0999756L114.1 0.0999756C115.2 0.0999756 116 1 116 2.09998L116 30.1C116 31.1 115.1 32 114.1 32Z" fill-rule="nonzero" fill="#FBE239"/>
		<path id="path" d="M18.7 31.8L0.200012 12.2C0 12 0 11.7 0.200012 11.5L8.29999 0.199951C8.39996 0.0999756 8.5 0 8.70001 0L29.3 0C29.5 0 29.6 0.0999756 29.7 0.199951L37.8 11.5C37.9 11.7 37.9 12 37.8 12.1L19.5 31.8C19.3 32.1 18.9 32.1 18.7 31.8ZM13.7 10.1L24.4 10.1C24.8 10.1 25 9.69995 24.8 9.30005L20.8 2.30005C20.8 2.09998 20.6 2 20.4 2L17.8 2C17.6 2 17.4 2.09998 17.4 2.30005L13.4 9.30005C13.1 9.59998 13.3 10.1 13.7 10.1ZM13.3 12.8L18.6 26.2C18.8 26.6 19.4 26.6 19.6 26.2L24.9 12.8C25 12.5 24.8 12.1 24.4 12.1L13.8 12.1C13.4 12.1 13.2 12.5 13.3 12.8ZM33.8 9.30005L28.7 2.30005C28.6 2.09998 28.5 2 28.3 2L23.8 2C23.4 2 23.2 2.40002 23.4 2.80005L27.4 9.80005C27.5 10 27.7 10.1 27.8 10.1L33.3 10.1C33.8 10.1 34.1 9.59998 33.8 9.30005ZM34.2 12.1L27.7 12.1C27.5 12.1 27.3 12.2 27.2 12.4L22.5 24.3C22.3 24.8 23 25.3 23.4 24.8L34.6 13C34.9 12.6 34.7 12.1 34.2 12.1ZM4.79999 10.1L10.1 10.1C10.3 10.1 10.5 10 10.5 9.80005L14.5 2.80005C14.8 2.40002 14.6 2 14.2 2L9.89996 2C9.70001 2 9.59998 2.09998 9.5 2.19995L4.39996 9.19995C4.09998 9.59998 4.39996 10.1 4.79999 10.1ZM3.59998 13L14.9 25C15.3 25.4 16 25 15.8 24.5L11.2 12.5C11.1 12.3 10.9 12.2 10.7 12.2L4 12.2C3.5 12.1 3.29999 12.6 3.59998 13Z" fill-rule="nonzero" fill="#C09311"/>
		<path id="矢量 9" d="M58.4145 7.00159C58.6499 7.01392 58.8506 7.08923 59.0165 7.22778C59.1825 7.36621 59.2578 7.52319 59.2424 7.69861Q59.2424 8.0033 59.1613 8.34485C59.1072 8.56958 59.0397 8.80188 58.9587 9.04187L64.6727 9.04187C64.9275 9.04187 65.1378 9.11121 65.3038 9.24963Q65.4497 9.37146 65.5101 9.52649Q65.5527 9.63599 65.5527 9.76208Q65.5527 9.88855 65.5085 9.99695Q65.4478 10.1458 65.3038 10.2606C65.1378 10.3929 64.9275 10.4591 64.6727 10.4591L58.3682 10.4591C58.2562 10.6746 58.1404 10.8838 58.0208 11.0869C57.905 11.2869 57.7834 11.4685 57.6561 11.6316C57.4824 11.847 57.2373 11.9547 56.9208 11.9547C56.778 11.9547 56.6275 11.9224 56.4692 11.8578C56.2647 11.7716 56.1335 11.6377 56.0756 11.4562C56.0215 11.2715 56.0582 11.0977 56.1855 10.9346C56.3438 10.7314 56.5021 10.4883 56.6603 10.2052C56.8185 9.92212 56.9594 9.62976 57.0829 9.32812C57.2103 9.02344 57.3164 8.72644 57.4013 8.43726Q57.5345 8.0033 57.5345 7.66174C57.5499 7.474 57.6445 7.31396 57.8182 7.18164C57.9957 7.04932 58.1945 6.98926 58.4145 7.00159ZM90.6724 24.3445C90.8076 24.5168 90.9948 24.6277 91.234 24.6769C91.2803 24.6892 91.3517 24.6953 91.4482 24.6953C91.8882 24.6953 92.1719 24.5199 92.2993 24.1691C92.3958 23.8798 92.4826 23.5105 92.5598 23.0612C92.6408 22.615 92.7122 22.1179 92.774 21.5702C92.8358 21.0193 92.8898 20.4362 92.9361 19.8207Q93.0114 18.8928 93.0808 17.9465L95.0261 17.9465L95.0261 24.0906C95.0261 24.2937 95.1129 24.4645 95.2866 24.603Q95.3729 24.6719 95.47 24.7179Q95.666 24.8108 95.906 24.8108Q96.1959 24.8108 96.4171 24.6875Q96.483 24.6508 96.5428 24.603C96.7166 24.4645 96.8033 24.2937 96.8033 24.0906L96.8033 17.4941C96.8033 17.2295 96.6837 17.0033 96.4445 16.8156C96.209 16.6248 95.9253 16.5293 95.5934 16.5293L93.1561 16.5293C93.187 16.0493 93.2062 15.5861 93.214 15.1399C93.2217 14.6936 93.2333 14.2675 93.2487 13.8612L97.2318 13.8612C97.4865 13.8612 97.6968 13.795 97.8628 13.6627C98.0288 13.5304 98.1118 13.3641 98.1118 13.1642C98.1118 12.9611 98.0288 12.7903 97.8628 12.6517C97.6968 12.5133 97.4865 12.4441 97.2318 12.4441L96.6181 12.4441L96.6181 7.7356C96.6181 7.54785 96.5294 7.38477 96.3518 7.24622C96.1781 7.10779 95.9658 7.03857 95.715 7.03857Q95.3956 7.03857 95.1693 7.18359Q95.1248 7.21216 95.0839 7.24622C94.918 7.38477 94.835 7.54785 94.835 7.7356L94.835 12.4441L93.2487 12.4441L93.2487 11.7839L93.2719 8.26636C93.2719 8.06641 93.185 7.89709 93.0114 7.75867Q92.9188 7.68323 92.8139 7.63464Q92.6234 7.54626 92.3919 7.54626C92.141 7.54626 91.9287 7.61707 91.7551 7.75867C91.5814 7.89709 91.4945 8.06641 91.4945 8.26636L91.4714 11.7839C91.4714 12.1993 91.4637 12.7379 91.4482 13.3995C91.4328 14.0613 91.4116 14.7798 91.3845 15.5553C91.3614 16.3308 91.3267 17.1356 91.2803 17.9696C91.234 18.8005 91.178 19.5914 91.1124 20.3423C91.0507 21.0901 90.9716 21.7671 90.8751 22.3734C90.7825 22.9766 90.6802 23.449 90.5682 23.7905C90.5065 23.9906 90.5412 24.1753 90.6724 24.3445ZM70.5054 16.4924C70.2545 16.4924 70.0461 16.42 69.8801 16.2755C69.7142 16.1309 69.6312 15.9569 69.6312 15.7538C69.6312 15.5662 69.718 15.403 69.8917 15.2645C70.0654 15.126 70.2777 15.0568 70.5286 15.0568L70.8643 15.0568L70.8643 10.0621Q70.8643 9.90771 70.9085 9.76733Q70.9991 9.47925 71.2754 9.24963C71.5533 9.02197 71.8987 8.90808 72.3116 8.90808L73.0237 7.5094C73.101 7.33398 73.2418 7.21545 73.4464 7.15393C73.6548 7.08923 73.869 7.08777 74.089 7.14929C74.309 7.2262 74.4576 7.34314 74.5348 7.50012C74.6158 7.6571 74.6177 7.82483 74.5406 8.0033L74.0659 8.92651L75.2526 8.92651C75.6463 8.92651 75.9802 9.03735 76.2542 9.25891C76.5321 9.48047 76.671 9.75439 76.671 10.0806L76.671 21.958C76.6556 22.2719 76.6286 22.5673 76.59 22.8442C76.5514 23.1212 76.4723 23.3767 76.3526 23.6106C76.233 23.8445 76.0497 24.046 75.8026 24.2152C75.5595 24.3845 75.2179 24.5199 74.778 24.6215C74.7432 24.6215 74.722 24.6245 74.7142 24.6307C74.7065 24.6368 74.6873 24.6399 74.6564 24.6399L73.6837 24.7554C73.4637 24.7799 73.2631 24.7323 73.0817 24.6123C72.9003 24.4922 72.7922 24.3445 72.7574 24.1691C72.7266 23.9906 72.7825 23.829 72.9254 23.6844C73.0681 23.5398 73.2495 23.4551 73.4695 23.4305L74.3727 23.3381C74.5001 23.2982 74.5984 23.2628 74.6679 23.2321C74.7413 23.2013 74.8011 23.1382 74.8474 23.0427C74.8937 22.9474 74.9285 22.8088 74.9516 22.6273C74.9786 22.4457 74.9999 22.1964 75.0153 21.8795L75.0153 20.1207C74.9805 20.2346 74.9188 20.3423 74.83 20.4438C74.7451 20.5454 74.6235 20.6146 74.4653 20.6516Q74.3958 20.67 74.338 20.6793C74.2993 20.6854 74.2549 20.6885 74.2048 20.6885C74.0311 20.6885 73.8767 20.6484 73.7416 20.5685C73.6104 20.4854 73.512 20.3807 73.4464 20.2546L72.549 18.2697Q72.5349 18.2697 72.5294 18.2627Q72.5259 18.2583 72.5259 18.2512C72.5066 18.7281 72.4776 19.236 72.439 19.7745C72.4005 20.3099 72.3406 20.8485 72.2596 21.3901C72.1824 21.9318 72.0724 22.458 71.9296 22.9689C71.7867 23.4797 71.6131 23.9552 71.4085 24.3953C71.2812 24.6846 71.0284 24.8292 70.6501 24.8292C70.5884 24.8292 70.4938 24.8169 70.3665 24.7922C70.1426 24.7277 69.9786 24.6138 69.8743 24.4507C69.774 24.2876 69.7721 24.1183 69.8686 23.9429C70.1851 23.2598 70.4263 22.3888 70.5922 21.3302Q70.8412 19.7422 70.8412 17.7572L70.8412 16.4924L70.5054 16.4924ZM54.9338 14.2253Q55.0236 14.2705 55.103 14.3367C55.2728 14.4751 55.3577 14.6521 55.3577 14.8676L55.3577 20.7623C55.3577 21.067 55.3403 21.4502 55.3056 21.9117C55.2747 22.3704 55.1531 22.8135 54.9409 23.2412C54.7286 23.6691 54.3928 24.0367 53.9335 24.3445Q53.2446 24.8108 51.9651 24.8108Q51.6588 24.8108 51.4305 24.6771L51.4305 24.6771Q51.3741 24.6442 51.3225 24.603C51.1489 24.4645 51.062 24.2937 51.062 24.0906Q51.062 23.9736 51.1016 23.8722Q51.1635 23.7133 51.3225 23.592C51.4962 23.4597 51.7104 23.3936 51.9651 23.3936Q52.3414 23.3936 52.6483 23.2874C52.8567 23.2197 53.0323 23.0905 53.1751 22.8997C53.3179 22.7119 53.4241 22.4457 53.4935 22.1011C53.563 21.7533 53.5977 21.3009 53.5977 20.7439L53.5977 15.4907L52.2256 15.4907Q52.0809 18.3619 51.7104 20.5869Q51.3457 22.8074 50.7783 24.4137Q50.7667 24.442 50.7529 24.4691Q50.656 24.6589 50.4483 24.7922Q50.4044 24.8204 50.3579 24.8434Q50.1531 24.9446 49.8983 24.9446Q49.7363 24.9446 49.6609 24.9261C49.4255 24.8616 49.2441 24.7446 49.1168 24.5753C48.9894 24.406 48.9662 24.2198 49.0473 24.0167Q50.5178 19.8761 50.5178 11.3131L49.9273 11.3131Q49.608 11.3131 49.3817 11.168Q49.3372 11.1395 49.2963 11.1053C49.1303 10.9637 49.0473 10.7992 49.0473 10.6115Q49.0473 10.4854 49.09 10.3759Q49.1503 10.2208 49.2963 10.099Q49.3372 10.0649 49.3817 10.0364L49.3817 10.0364Q49.608 9.89136 49.9273 9.89136L52.0346 9.89136L51.1315 8.17407Q51.0643 8.04456 51.0621 7.91394Q51.0598 7.77454 51.1315 7.63403Q51.1553 7.58838 51.1848 7.54675Q51.3344 7.33569 51.6293 7.22778Q51.8496 7.15698 52.0633 7.1731Q52.1979 7.18323 52.3299 7.22778Q52.5778 7.30688 52.7195 7.47522L52.7195 7.47522Q52.7764 7.54285 52.8162 7.62476L54.003 9.90979L55.1898 9.90979Q55.4839 9.90979 55.7003 10.0396Q55.7607 10.0758 55.8151 10.1221Q55.9662 10.2482 56.0256 10.4083Q56.064 10.512 56.064 10.6299C56.064 10.8176 55.981 10.9823 55.8151 11.1238Q55.7671 11.1638 55.7144 11.1962L55.7144 11.1962Q55.4936 11.3315 55.1898 11.3315L52.3414 11.3315Q52.3414 12.0656 52.3299 12.7672C52.3221 13.2318 52.3105 13.6858 52.2951 14.1289L54.5009 14.1289Q54.7415 14.1289 54.9338 14.2253ZM106.194 22.1288C105.688 21.5101 105.215 20.8408 104.775 20.1207C105.424 19.0743 105.929 17.9757 106.292 16.8248C106.655 15.6708 106.875 14.4813 106.952 13.2565C106.952 13.0442 106.873 12.8749 106.715 12.7487C106.51 12.6102 106.298 12.541 106.078 12.541L100.387 12.541Q100.433 11.0453 100.387 9.79895Q101.284 9.72046 102.957 9.55432C104.073 9.44043 105.302 9.28198 106.645 9.07886C106.885 9.04187 107.074 8.94189 107.213 8.77881C107.355 8.61267 107.411 8.43567 107.38 8.24792C107.334 8.0448 107.207 7.88794 106.998 7.7771C106.794 7.66321 106.566 7.61865 106.315 7.64319C105.397 7.78174 104.519 7.89868 103.681 7.99402C102.844 8.08643 102.108 8.16174 101.475 8.22021C100.842 8.27563 100.337 8.32031 99.9586 8.35413L99.3912 8.40027C99.1674 8.42493 98.9724 8.50647 98.8065 8.6449C98.6405 8.78345 98.5576 8.94653 98.5576 9.13428Q98.5865 10.3853 98.5691 11.7655C98.5614 12.6857 98.5344 13.615 98.488 14.5536C98.4418 15.4922 98.3742 16.4155 98.2855 17.3234C98.2005 18.2312 98.0983 19.0944 97.9786 19.913C97.8589 20.7316 97.7162 21.4825 97.5502 22.1656C97.3842 22.8458 97.2067 23.4243 97.0176 23.9014C96.9404 24.0922 96.9597 24.2753 97.0754 24.4507C97.1951 24.6292 97.3669 24.7554 97.5907 24.8292C97.7142 24.8538 97.8165 24.8661 97.8976 24.8661C98.0712 24.8661 98.241 24.8185 98.407 24.723C98.573 24.6307 98.6868 24.5153 98.7486 24.3768C98.9879 23.7952 99.1982 23.1042 99.3796 22.3042Q99.6517 21.104 99.8544 19.7238C99.9894 18.8036 100.096 17.8527 100.173 16.871C100.25 15.8861 100.306 14.9153 100.341 13.9581L100.555 13.9581C100.663 14.8014 100.914 15.7692 101.307 16.8617C101.705 17.9512 102.205 19.0375 102.807 20.1207C101.873 21.5087 100.702 22.6996 99.2928 23.6936C99.1191 23.8322 99.0245 23.9952 99.0091 24.183C98.9937 24.3738 99.0728 24.5383 99.2465 24.6769C99.3275 24.7661 99.426 24.8292 99.5417 24.8661C99.6614 24.9061 99.7772 24.9261 99.8891 24.9261C100.109 24.9261 100.306 24.8693 100.48 24.7554C101.113 24.2999 101.701 23.8075 102.245 23.2782C102.793 22.7489 103.295 22.1949 103.751 21.6163Q104.37 22.5211 105.071 23.3151C105.538 23.8445 106.016 24.3044 106.506 24.6953C106.68 24.8369 106.885 24.9077 107.12 24.9077C107.375 24.9077 107.581 24.8369 107.739 24.6953C107.913 24.5569 108 24.3938 108 24.2061C108 24.0183 107.913 23.8536 107.739 23.712C107.215 23.272 106.699 22.7443 106.194 22.1288ZM84.9498 18.8928C84.6951 18.8928 84.4808 18.8236 84.3072 18.6851C84.1335 18.5466 84.0467 18.3759 84.0467 18.1727L84.0467 9.55432L79.7799 9.55432L79.7799 18.1727C79.7799 18.3635 79.6931 18.5312 79.5194 18.6759C79.3457 18.8206 79.1315 18.8928 78.8768 18.8928C78.6259 18.8928 78.4098 18.8206 78.2284 18.6759C78.047 18.5312 77.9563 18.3635 77.9563 18.1727L77.9563 9.34656C77.9563 8.99268 78.101 8.69568 78.3905 8.45569C78.6838 8.21558 79.0369 8.09558 79.45 8.09558L84.3824 8.09558C84.7916 8.09558 85.1428 8.21558 85.4361 8.45569C85.7294 8.69568 85.8761 8.99268 85.8761 9.34656L85.8761 18.1727C85.8761 18.3635 85.7834 18.5312 85.5982 18.6759C85.4168 18.8206 85.2007 18.8928 84.9498 18.8928ZM72.5259 12.2363L72.5259 15.0752L74.9921 15.0752L74.9921 10.2513L72.5259 10.2513L72.5259 11.6686C72.6185 11.4932 72.7748 11.3746 72.9948 11.3131Q73.2405 11.2422 73.4645 11.2849Q73.5466 11.3005 73.6259 11.3315C73.8227 11.4054 73.9616 11.5316 74.0427 11.7101L74.9169 13.6951C74.9979 13.8705 74.9902 14.0366 74.8937 14.1936C74.8011 14.3505 74.6428 14.4613 74.419 14.5259C74.3727 14.5382 74.3283 14.5475 74.2858 14.5536C74.2473 14.5598 74.2048 14.5629 74.1584 14.5629C73.7802 14.5629 73.5274 14.4182 73.4001 14.1289L72.5259 12.2363ZM81.702 10.6299C81.9683 10.6299 82.1844 10.696 82.3504 10.8284C82.5164 10.9607 82.5993 11.1284 82.5993 11.3315C82.5993 13.0056 82.5433 14.4983 82.4315 15.8092C82.3234 17.1202 82.0956 18.3097 81.7483 19.3776C81.4009 20.4423 80.9146 21.4102 80.2894 22.2811Q79.3515 23.5829 77.8347 24.7738C77.661 24.9124 77.4468 24.9816 77.1921 24.9816C76.9412 24.9816 76.7289 24.9124 76.5552 24.7738C76.3661 24.6354 76.2716 24.4614 76.2716 24.2522C76.2716 24.046 76.3661 23.8737 76.5552 23.7352C77.3773 23.092 78.0605 22.4211 78.6047 21.7225Q79.421 20.67 79.9073 19.2621Q80.3936 17.8541 80.5847 15.9431C80.712 14.6691 80.7757 13.1381 80.7757 11.35Q80.7757 11.2422 80.8098 11.1465Q80.872 10.9718 81.0478 10.8376C81.2292 10.6991 81.4473 10.6299 81.702 10.6299ZM65.1938 19.8761C65.4639 19.8761 65.682 19.9484 65.848 20.093C66.0139 20.2377 66.0969 20.4115 66.0969 20.6146C66.0969 20.8147 66.0101 20.9839 65.8364 21.1224C65.6627 21.2609 65.4485 21.3302 65.1938 21.3302L56.585 21.3302Q56.3817 21.3302 56.2053 21.2614Q56.0753 21.2106 55.9598 21.1224C55.7784 20.9839 55.6877 20.8147 55.6877 20.6146C55.6877 20.4115 55.7784 20.2377 55.9598 20.093Q56.0867 19.9918 56.2312 19.9379Q56.3966 19.8761 56.585 19.8761L57.4418 19.8761L57.4418 13.9951L56.9208 13.9951Q56.6144 13.9951 56.3862 13.8615Q56.3298 13.8285 56.2782 13.7874Q56.1172 13.6591 56.0557 13.4937Q56.0177 13.3914 56.0177 13.2749C56.0177 13.075 56.1045 12.9087 56.2782 12.7764Q56.3153 12.7482 56.3549 12.7239L56.355 12.7239Q56.5932 12.5779 56.9208 12.5779L57.4418 12.5779L57.4418 12.2363C57.4418 12.0363 57.5248 11.8701 57.6908 11.7378C57.8568 11.6055 58.0671 11.5393 58.3218 11.5393C58.5727 11.5393 58.785 11.6055 58.9587 11.7378C59.1323 11.8701 59.2192 12.0363 59.2192 12.2363L59.2192 12.5779L62.5422 12.5779L62.5422 12.2363C62.5422 12.0363 62.633 11.8639 62.8144 11.7194C62.9958 11.5715 63.2119 11.4977 63.4628 11.4977C63.7175 11.4977 63.9317 11.5715 64.1054 11.7194C64.2791 11.8639 64.3659 12.0363 64.3659 12.2363L64.3659 12.5779L64.9564 12.5779C65.2112 12.5779 65.4254 12.644 65.5991 12.7764C65.7727 12.9087 65.8596 13.075 65.8596 13.2749C65.8596 13.478 65.7727 13.6488 65.5991 13.7874C65.4254 13.9258 65.2112 13.9951 64.9564 13.9951L64.3659 13.9951L64.3659 19.8761L65.1938 19.8761ZM102.859 16.0077C102.6 15.2322 102.425 14.5428 102.332 13.9397L105.128 13.9397C105.051 14.7213 104.897 15.4814 104.665 16.2201C104.438 16.9556 104.158 17.6696 103.826 18.3619C103.444 17.568 103.121 16.7832 102.859 16.0077ZM59.2192 13.9951L59.2192 15.0337L62.5422 15.0337L62.5422 13.9951L59.2192 13.9951ZM59.2192 17.4572L62.5422 17.4572L62.5422 16.437L59.2192 16.437L59.2192 17.4572ZM74.9169 19.8391Q74.9632 19.913 74.9632 19.9684L74.9632 16.474L72.4969 16.474L72.4969 17.8727C72.578 17.6696 72.744 17.531 72.9948 17.4572C73.2187 17.3926 73.429 17.3987 73.6259 17.4757C73.8227 17.5496 73.9616 17.6757 74.0427 17.8541L74.9169 19.8391ZM86.2061 19.9684C86.457 19.9684 86.6731 20.0392 86.8545 20.1808C87.0397 20.3192 87.1246 20.4946 87.1093 20.707L87.1093 22.8997C87.1093 23.1396 87.0533 23.3658 86.9413 23.5782C86.8294 23.7937 86.6789 23.9799 86.4897 24.1367C86.3007 24.2968 86.0787 24.4199 85.824 24.5061C85.5731 24.5953 85.3049 24.6399 85.0193 24.6399L84.0698 24.6399C83.7881 24.6399 83.5198 24.5953 83.2651 24.5061C83.0104 24.4199 82.7885 24.2968 82.5993 24.1367C82.4102 23.9799 82.2597 23.7937 82.1478 23.5782C82.0397 23.3658 81.9857 23.1396 81.9857 22.8997L81.9857 18.9113C81.9857 18.7113 82.0764 18.542 82.2578 18.4036C82.4391 18.262 82.6572 18.1912 82.9119 18.1912C83.1628 18.1912 83.3751 18.262 83.5488 18.4036C83.7225 18.542 83.8093 18.7113 83.8093 18.9113L83.8093 22.8997Q83.8093 23.0629 83.8907 23.1387Q83.9612 23.2043 84.093 23.2043L85.0193 23.2043C85.0811 23.2043 85.1428 23.175 85.2045 23.1166C85.2701 23.0612 85.303 22.9889 85.303 22.8997L85.303 20.707C85.303 20.507 85.3898 20.3346 85.5635 20.1899C85.7372 20.0422 85.9514 19.9684 86.2061 19.9684ZM59.2192 19.8761L62.5422 19.8761L62.5422 18.8744L59.2192 18.8744L59.2192 19.8761ZM59.005 21.7456C59.2288 21.8225 59.3793 21.9534 59.4565 22.1379C59.5376 22.3196 59.5376 22.498 59.4565 22.6735C59.1864 23.1289 58.8409 23.5552 58.4202 23.9521C58.0034 24.3491 57.5499 24.6538 57.0598 24.8661Q56.8224 24.963 56.614 24.963C56.4712 24.963 56.3284 24.9308 56.1855 24.8661C56.0428 24.8046 55.9327 24.7169 55.8556 24.603C55.7282 24.4399 55.6954 24.2629 55.7571 24.0721C55.8228 23.8844 55.9656 23.7397 56.1855 23.6382C56.5021 23.4998 56.8147 23.2889 57.1234 23.0059C57.4322 22.7227 57.6734 22.4226 57.8471 22.1057C57.9552 21.9303 58.1192 21.8087 58.3392 21.741C58.563 21.6702 58.785 21.6718 59.005 21.7456ZM63.7754 21.8979Q64.4586 22.3918 64.9796 22.9781C65.3308 23.3689 65.601 23.7029 65.7901 23.9799C65.8981 24.1553 65.9117 24.3307 65.8306 24.5061C65.7534 24.6846 65.6049 24.8246 65.3848 24.9261C65.2729 24.9753 65.1475 25 65.0085 25C64.8348 25 64.6766 24.9646 64.5338 24.8938C64.391 24.8262 64.2791 24.7291 64.198 24.603C64.0552 24.3752 63.8372 24.0999 63.5438 23.7767C63.2543 23.4567 62.9359 23.1704 62.5886 22.9181C62.4149 22.7797 62.3242 22.6196 62.3165 22.438C62.3088 22.2565 62.384 22.0964 62.5422 21.958C62.7159 21.8041 62.9205 21.7241 63.1559 21.7179C63.3952 21.7118 63.6017 21.7717 63.7754 21.8979Z" fill-rule="evenodd" fill="#B68115"/>
	</g>
</svg>
